<svg xmlns="http://www.w3.org/2000/svg" viewBox="0 0 512 512">
  <rect width="512" height="512" rx="120" fill="#1f6b5f" />
  <rect x="72" y="88" width="368" height="336" rx="52" fill="#f7f4ef" />
  <path
    d="M152 202c0-28.719 23.281-52 52-52h104c28.719 0 52 23.281 52 52s-23.281 52-52 52H204c-7.719 0-14 6.281-14 14s6.281 14 14 14h84c37.496 0 68 30.504 68 68s-30.504 68-68 68H176v-52h112c8.824 0 16-7.176 16-16s-7.176-16-16-16h-84c-36.391 0-66-29.609-66-66s29.609-66 66-66h104c9.926 0 18-8.074 18-18s-8.074-18-18-18H204c-10.477 0-19 8.523-19 19v17h-33v-18Z"
    fill="#1f6b5f"
  />
</svg>
