<svg width="1024" height="1024" viewBox="0 0 1024 1024" fill="none" xmlns="http://www.w3.org/2000/svg">
  <rect width="1024" height="1024" rx="224" fill="#F7AFC9"/>
  <circle cx="512" cy="512" r="344" fill="url(#glow)"/>
  <circle cx="512" cy="498" r="228" fill="#FFD9E4"/>
  <path d="M335 432C354 331 421 275 512 275C603 275 670 331 689 432C668 414 641 404 613 404H411C383 404 356 414 335 432Z" fill="#6F483F"/>
  <path d="M364 487C364 384 430 319 512 319C594 319 660 384 660 487V542C660 656 594 729 512 729C430 729 364 656 364 542V487Z" fill="#FFD8C8"/>
  <ellipse cx="442" cy="523" rx="28" ry="34" fill="#4C3840"/>
  <ellipse cx="582" cy="523" rx="28" ry="34" fill="#4C3840"/>
  <ellipse cx="450" cy="531" rx="10" ry="12" fill="white" fill-opacity="0.9"/>
  <ellipse cx="590" cy="531" rx="10" ry="12" fill="white" fill-opacity="0.9"/>
  <path d="M475 615C497 630 527 630 549 615" stroke="#A7667B" stroke-width="16" stroke-linecap="round"/>
  <path d="M360 443C390 391 444 363 512 363C580 363 634 391 664 443V488C664 476 654 466 642 466C612 466 587 444 584 414C548 449 485 466 416 466C404 466 394 476 394 488V525C394 537 384 547 372 547C360 547 350 537 350 525V488C350 472 353 457 360 443Z" fill="#7D5248"/>
  <rect x="460" y="718" width="104" height="54" rx="24" fill="#FFD8C8"/>
  <path d="M356 807C356 754 399 711 452 711H572C625 711 668 754 668 807V860H356V807Z" fill="#D679A1"/>
  <path d="M332 860C332 823 362 793 399 793H625C662 793 692 823 692 860V913H332V860Z" fill="#E9DCE5"/>
  <circle cx="773" cy="260" r="44" fill="#FFF3F8" fill-opacity="0.92"/>
  <path d="M773 227L782 251L807 260L782 269L773 293L764 269L739 260L764 251L773 227Z" fill="#F09ABB"/>
  <defs>
    <radialGradient id="glow" cx="0" cy="0" r="1" gradientUnits="userSpaceOnUse" gradientTransform="translate(512 512) rotate(90) scale(344)">
      <stop stop-color="#FFDDEA"/>
      <stop offset="1" stop-color="#F6A5C4" stop-opacity="0"/>
    </radialGradient>
  </defs>
</svg>
